<svg width="96" height="96" xmlns="http://www.w3.org/2000/svg" xmlns:xlink="http://www.w3.org/1999/xlink" xml:space="preserve" overflow="hidden"><defs><clipPath id="clip0"><rect x="239" y="373" width="96" height="96"/></clipPath></defs><g clip-path="url(#clip0)" transform="translate(-239 -373)"><path d="M284.436 417.577C286.426 417.584 288.18 417.589 289.759 417.589 292.459 417.644 295.161 417.535 297.848 417.263 296.294 412.534 292.477 408.896 287.679 407.571 289.802 405.399 289.762 401.916 287.59 399.793 285.417 397.67 281.935 397.71 279.812 399.883 277.723 402.02 277.723 405.434 279.812 407.571 274.892 408.928 271.012 412.714 269.535 417.6 271.195 417.563 273.092 417.557 275.284 417.557 278.825 417.561 281.831 417.569 284.436 417.577Z" fill="#0095FF"/><path d="M329.4 413.477C329.079 411.172 328.241 408.969 326.949 407.033 323.765 402.127 314.376 399.9 312.477 396.885 309.66 392.42 314.016 388.903 314.141 391.335 314.21 395.053 317.207 398.05 320.925 398.119 324.672 398.119 327.709 395.082 327.709 391.335 327.709 383.671 321.5 379 313.832 379 306.168 379 299.955 385.213 299.955 392.877 299.955 400.541 306.688 403.977 313.832 406.753 318.671 408.632 321.811 410.038 324.851 412.882L324.038 412.882C322.867 412.875 321.718 413.194 320.718 413.803 317.584 415.739 307.909 419.227 300.324 420.024 296.82 420.463 293.289 420.652 289.758 420.589 288.177 420.589 286.42 420.589 284.428 420.577 281.828 420.57 278.821 420.56 275.284 420.56 271.617 420.44 267.946 420.587 264.3 421 264.158 420.052 263.897 419.125 263.523 418.242 262.404 415.746 260.451 413.718 258 412.505 255.574 411.291 252.732 411.225 250.251 412.323 245.451 414.535 243.608 420.789 246.133 426.266 247.849 429.985 254.479 434.93 257.821 437.257 255.684 438.397 254.876 441.053 256.017 443.19 257.157 445.327 259.813 446.134 261.95 444.994 263.201 444.327 264.052 443.095 264.234 441.689 267.961 446.69 273.641 449.868 279.852 450.429 278.881 451.406 278.313 452.712 278.262 454.089 274.159 455.445 270.695 458.26 268.529 462L298.963 462C296.797 458.261 293.335 455.446 289.232 454.089 289.173 452.543 288.463 451.094 287.278 450.1 298.7 448.708 304.642 443.2 314.307 432.072 319.063 426.578 324.091 421.325 329.373 416.333 330.169 415.587 330.209 414.337 329.463 413.541 329.443 413.519 329.422 413.498 329.4 413.477ZM251.579 423.753C250.459 421.323 251.001 418.584 252.762 417.772 253.104 417.615 253.477 417.535 253.853 417.538 254.392 417.549 254.923 417.678 255.407 417.916 256.595 418.53 257.537 419.531 258.077 420.755L258.077 420.755C258.723 422.155 258.823 426.186 258.577 430.393 255.227 427.845 252.225 425.151 251.579 423.753Z" fill="#0095FF"/></g></svg>